<svg width="18" height="18" viewBox="0 0 18 18" fill="none" xmlns="http://www.w3.org/2000/svg">
<path d="M10.2441 9.24283C10.2441 8.73272 10.6576 8.31922 11.1678 8.31922H15.7858C16.2959 8.31922 16.7094 8.73272 16.7094 9.24283V15.7081C16.7094 16.2182 16.2959 16.6317 15.7858 16.6317H11.1678C10.6576 16.6317 10.2441 16.2182 10.2441 15.7081V9.24283Z" stroke="#94B56D" stroke-width="2" stroke-linecap="round"/>
<path d="M1.93164 2.77755C1.93164 2.26746 2.34516 1.85394 2.85525 1.85394H6.5497C7.05979 1.85394 7.47331 2.26746 7.47331 2.77755V9.24283C7.47331 9.75294 7.05979 10.1664 6.5497 10.1664H2.85525C2.34516 10.1664 1.93164 9.75294 1.93164 9.24283V2.77755Z" stroke="#94B56D" stroke-width="2" stroke-linecap="round"/>
<path d="M1.93164 13.8609C1.93164 13.3508 2.34516 12.9373 2.85525 12.9373H6.5497C7.05979 12.9373 7.47331 13.3508 7.47331 13.8609V15.7081C7.47331 16.2182 7.05979 16.6317 6.5497 16.6317H2.85525C2.34516 16.6317 1.93164 16.2182 1.93164 15.7081V13.8609Z" stroke="#94B56D" stroke-width="2" stroke-linecap="round"/>
<path d="M10.2441 2.77755C10.2441 2.26746 10.6576 1.85394 11.1678 1.85394H15.7858C16.2959 1.85394 16.7094 2.26746 16.7094 2.77755V4.62478C16.7094 5.13487 16.2959 5.54839 15.7858 5.54839H11.1678C10.6576 5.54839 10.2441 5.13487 10.2441 4.62478V2.77755Z" stroke="#94B56D" stroke-width="2" stroke-linecap="round"/>
</svg>
