<svg width="29" height="29" viewBox="0 0 29 29" fill="none" xmlns="http://www.w3.org/2000/svg">
<path d="M16.3335 14.5C16.3335 13.5795 17.0797 12.8333 18.0002 12.8333H26.3335C27.254 12.8333 28.0002 13.5795 28.0002 14.5V26.1666C28.0002 27.0871 27.254 27.8333 26.3335 27.8333H18.0002C17.0797 27.8333 16.3335 27.0871 16.3335 26.1666V14.5Z" stroke="#94B56D" stroke-width="2" stroke-linecap="round"/>
<path d="M1.3335 2.83329C1.3335 1.91283 2.0797 1.16663 3.00016 1.16663H9.66683C10.5873 1.16663 11.3335 1.91283 11.3335 2.83329V14.5C11.3335 15.4205 10.5873 16.1666 9.66683 16.1666H3.00016C2.0797 16.1666 1.3335 15.4205 1.3335 14.5V2.83329Z" stroke="#94B56D" stroke-width="2" stroke-linecap="round"/>
<path d="M1.3335 22.8333C1.3335 21.9128 2.0797 21.1666 3.00016 21.1666H9.66683C10.5873 21.1666 11.3335 21.9128 11.3335 22.8333V26.1666C11.3335 27.0871 10.5873 27.8333 9.66683 27.8333H3.00016C2.0797 27.8333 1.3335 27.0871 1.3335 26.1666V22.8333Z" stroke="#94B56D" stroke-width="2" stroke-linecap="round"/>
<path d="M16.3335 2.83329C16.3335 1.91283 17.0797 1.16663 18.0002 1.16663H26.3335C27.254 1.16663 28.0002 1.91283 28.0002 2.83329V6.16663C28.0002 7.08709 27.254 7.83329 26.3335 7.83329H18.0002C17.0797 7.83329 16.3335 7.08709 16.3335 6.16663V2.83329Z" stroke="#94B56D" stroke-width="2" stroke-linecap="round"/>
</svg>
