<svg width="29" height="29" viewBox="0 0 29 29" fill="none" xmlns="http://www.w3.org/2000/svg">
<path d="M16.3334 14.5C16.3334 13.5795 17.0795 12.8333 18 12.8333H26.3334C27.2539 12.8333 28 13.5795 28 14.5V26.1667C28 27.0872 27.2539 27.8333 26.3334 27.8333H18C17.0795 27.8333 16.3334 27.0872 16.3334 26.1667V14.5Z" stroke="#94B56D" stroke-width="2" stroke-linecap="round"/>
<path d="M1.33337 2.83334C1.33337 1.91287 2.07957 1.16667 3.00004 1.16667H9.66671C10.5872 1.16667 11.3334 1.91287 11.3334 2.83334V14.5C11.3334 15.4205 10.5872 16.1667 9.66671 16.1667H3.00004C2.07957 16.1667 1.33337 15.4205 1.33337 14.5V2.83334Z" stroke="#94B56D" stroke-width="2" stroke-linecap="round"/>
<path d="M1.33337 22.8333C1.33337 21.9128 2.07957 21.1667 3.00004 21.1667H9.66671C10.5872 21.1667 11.3334 21.9128 11.3334 22.8333V26.1667C11.3334 27.0872 10.5872 27.8333 9.66671 27.8333H3.00004C2.07957 27.8333 1.33337 27.0872 1.33337 26.1667V22.8333Z" stroke="#94B56D" stroke-width="2" stroke-linecap="round"/>
<path d="M16.3334 2.83334C16.3334 1.91287 17.0795 1.16667 18 1.16667H26.3334C27.2539 1.16667 28 1.91287 28 2.83334V6.16667C28 7.08714 27.2539 7.83334 26.3334 7.83334H18C17.0795 7.83334 16.3334 7.08714 16.3334 6.16667V2.83334Z" stroke="#94B56D" stroke-width="2" stroke-linecap="round"/>
</svg>
