<svg width="26" height="29" viewBox="0 0 26 29" fill="none" xmlns="http://www.w3.org/2000/svg">
<path d="M7.66667 27.3049H4.33333C2.49238 27.3049 1 25.8126 1 23.9716V12.1714C1 11.1982 1.42522 10.2738 2.16403 9.64048L10.4973 2.49762C11.7457 1.42765 13.5877 1.42765 14.836 2.49762L23.1693 9.64048C23.9082 10.2738 24.3333 11.1982 24.3333 12.1714V23.9716C24.3333 25.8126 22.841 27.3049 21 27.3049H17.6667M7.66667 27.3049V17.3049C7.66667 16.3844 8.41287 15.6382 9.33333 15.6382H16C16.9205 15.6382 17.6667 16.3844 17.6667 17.3049V27.3049M7.66667 27.3049H17.6667" stroke="#94B56D" stroke-width="2" stroke-linecap="round" stroke-linejoin="round"/>
</svg>
