<svg width="17" height="18" viewBox="0 0 17 18" fill="none" xmlns="http://www.w3.org/2000/svg">
<path d="M5.66059 16.7118H3.7717C2.7285 16.7118 1.88281 15.8506 1.88281 14.7883V7.97917C1.88281 7.41762 2.12377 6.88417 2.54243 6.51875L7.26463 2.39705C7.97202 1.77964 9.01582 1.77964 9.72321 2.39705L14.4454 6.51875C14.8641 6.88417 15.105 7.41762 15.105 7.97917V14.7883C15.105 15.8506 14.2594 16.7118 13.2161 16.7118H11.3273M5.66059 16.7118V10.9414C5.66059 10.4102 6.08344 9.97967 6.60503 9.97967H10.3828C10.9044 9.97967 11.3273 10.4102 11.3273 10.9414V16.7118M5.66059 16.7118H11.3273" stroke="#ACD38B" stroke-width="2" stroke-linecap="round" stroke-linejoin="round"/>
</svg>
