<svg width="200" height="108" viewBox="0 0 200 108" fill="none" xmlns="http://www.w3.org/2000/svg">
<path d="M4.32816 42.9727C3.90252 40.8131 8.14166 33.3171 10.1308 29.9272C11.1359 31.5633 22.5113 44.9459 29.7346 52.4051L22.9259 54.727L16.7051 56.3762C12.8879 52.8382 4.7538 45.1324 4.32816 42.9727Z" fill="#94B56D"/>
<path d="M31.5817 53.7363L18.6728 57.761C30.3488 69.4938 34.8422 74.9745 38.1876 80.1144C41.4022 74.835 44.1718 68.9331 43.6026 66.6417C43.1898 64.9798 34.209 56.0521 31.5817 53.7363Z" fill="#94B56D"/>
<path d="M12.0247 26.6082C12.4625 25.8404 13.275 24.4467 15.0741 23.973C16.3917 23.6261 17.6422 23.5017 18.0583 23.432C22.07 23.1782 22.4547 23.4172 22.6728 23.4463C22.8909 23.4753 25.5493 23.9048 26.8513 24.1159L25.5868 19.8167L36.3615 30.9788L31.2547 40.5121L30.0624 37.349L16.5308 34.982C14.552 33.4791 10.9309 29.5867 12.0247 26.6082Z" fill="#94B56D"/>
<path d="M16.9561 69.7364L6.53267 79.6575L22.8391 90.2728L21.2186 85.4754C22.8172 86.1016 27.1779 87.141 31.831 86.2892C36.4841 85.4375 36.8773 82.8437 36.4922 81.6533C35.8946 79.8588 34.1258 76.0656 31.832 75.2492C29.5382 74.4327 21.9356 73.3668 18.421 72.9358L16.9561 69.7364Z" fill="#94B56D"/>
<path d="M6.50248 41.2334C6.07684 39.0737 10.316 31.5777 12.3051 28.1878C13.3102 29.8239 24.6856 43.2065 31.9089 50.6658L25.1002 52.9876L18.8794 54.6368C15.0622 51.0988 6.92811 43.393 6.50248 41.2334Z" fill="#ACD38B"/>
<path d="M33.7561 51.9969L20.8471 56.0216C32.5231 67.7545 37.0165 73.2351 40.3619 78.375C43.5765 73.0957 46.3461 67.1937 45.7769 64.9023C45.3641 63.2404 36.3833 54.3127 33.7561 51.9969Z" fill="#ACD38B"/>
<path d="M14.199 24.8688C14.6368 24.1011 15.4493 22.7073 17.2484 22.2336C18.5661 21.8867 19.8166 21.7623 20.2326 21.6926C24.2443 21.4388 24.629 21.6778 24.8471 21.7069C25.0652 21.736 27.7237 22.1654 29.0256 22.3765L27.7611 18.0773L38.5358 29.2394L33.429 38.7727L32.2367 35.6097L18.7052 33.2427C16.7264 31.7397 13.1053 27.8473 14.199 24.8688Z" fill="#ACD38B"/>
<path d="M19.1304 67.997L8.70698 77.9181L25.0134 88.5334L23.3929 83.7361C24.9916 84.3622 29.3522 85.4016 34.0053 84.5499C38.6584 83.6981 39.0516 81.1043 38.6666 79.914C38.0689 78.1194 36.3001 74.3263 34.0063 73.5098C31.7125 72.6934 24.1099 71.6274 20.5953 71.1964L19.1304 67.997Z" fill="#ACD38B"/>
<path d="M58.4957 50.061C58.4504 49.4948 58.2381 49.0532 57.8587 48.7361C57.485 48.419 56.916 48.2605 56.1516 48.2605C55.6647 48.2605 55.2655 48.3199 54.9541 48.4388C54.6483 48.5521 54.4219 48.7078 54.2746 48.906C54.1274 49.1041 54.051 49.3306 54.0453 49.5854C54.034 49.7949 54.0708 49.9846 54.1557 50.1544C54.2463 50.3186 54.3879 50.4687 54.5804 50.6046C54.7729 50.7348 55.0192 50.8537 55.3193 50.9613C55.6194 51.0689 55.9761 51.1651 56.3894 51.25L57.8162 51.5558C58.7788 51.7596 59.6026 52.0286 60.2877 52.3626C60.9728 52.6967 61.5334 53.0902 61.9693 53.5432C62.4053 53.9905 62.7252 54.4944 62.929 55.0549C63.1385 55.6155 63.2461 56.227 63.2518 56.8894C63.2461 58.0331 62.9602 59.0013 62.394 59.794C61.8278 60.5867 61.0181 61.1897 59.965 61.603C58.9175 62.0164 57.6577 62.223 56.1856 62.223C54.6738 62.223 53.3546 61.9994 52.2278 61.5521C51.1067 61.1048 50.2348 60.4168 49.612 59.4883C48.9948 58.554 48.6834 57.3594 48.6777 55.9042H53.1621C53.1904 56.4364 53.3234 56.8837 53.5612 57.2461C53.799 57.6085 54.1331 57.8831 54.5634 58.0699C54.9994 58.2568 55.5175 58.3502 56.1176 58.3502C56.6216 58.3502 57.0434 58.2879 57.3831 58.1634C57.7228 58.0388 57.9804 57.8661 58.156 57.6453C58.3315 57.4245 58.4221 57.1725 58.4277 56.8894C58.4221 56.6233 58.3343 56.3912 58.1645 56.193C58.0003 55.9891 57.7285 55.808 57.3491 55.6494C56.9698 55.4852 56.4574 55.3324 55.8119 55.1908L54.0793 54.8171C52.5392 54.483 51.3247 53.9253 50.4358 53.144C49.5525 52.357 49.1137 51.284 49.1194 49.9251C49.1137 48.821 49.4081 47.8557 50.0026 47.029C50.6028 46.1967 51.4323 45.5484 52.4911 45.0841C53.5556 44.6198 54.7757 44.3877 56.1516 44.3877C57.5558 44.3877 58.7703 44.6226 59.7951 45.0926C60.8199 45.5625 61.6098 46.225 62.1647 47.08C62.7252 47.9293 63.0083 48.9229 63.014 50.061H58.4957Z" fill="#94B56D"/>
<path d="M75.5808 44.6255H80.3029V55.7683C80.3029 57.0932 79.9858 58.2398 79.3517 59.208C78.7232 60.1705 77.8456 60.9151 76.7188 61.4417C75.5921 61.9626 74.2842 62.223 72.7951 62.223C71.2946 62.223 69.981 61.9626 68.8543 61.4417C67.7275 60.9151 66.8499 60.1705 66.2215 59.208C65.5986 58.2398 65.2872 57.0932 65.2872 55.7683V44.6255H70.0093V55.3607C70.0093 55.8986 70.1282 56.3798 70.3661 56.8045C70.6039 57.2235 70.9323 57.5519 71.3512 57.7897C71.7759 58.0275 72.2572 58.1464 72.7951 58.1464C73.3386 58.1464 73.8199 58.0275 74.2389 57.7897C74.6579 57.5519 74.9863 57.2235 75.2241 56.8045C75.4619 56.3798 75.5808 55.8986 75.5808 55.3607V44.6255Z" fill="#94B56D"/>
<path d="M92.1627 50.061C92.1174 49.4948 91.905 49.0532 91.5257 48.7361C91.152 48.419 90.5829 48.2605 89.8186 48.2605C89.3316 48.2605 88.9325 48.3199 88.6211 48.4388C88.3153 48.5521 88.0888 48.7078 87.9416 48.906C87.7944 49.1041 87.718 49.3306 87.7123 49.5854C87.701 49.7949 87.7378 49.9846 87.8227 50.1544C87.9133 50.3186 88.0549 50.4687 88.2474 50.6046C88.4399 50.7348 88.6862 50.8537 88.9863 50.9613C89.2863 51.0689 89.6431 51.1651 90.0564 51.25L91.4832 51.5558C92.4458 51.7596 93.2696 52.0286 93.9547 52.3626C94.6398 52.6967 95.2003 53.0902 95.6363 53.5432C96.0723 53.9905 96.3922 54.4944 96.596 55.0549C96.8055 55.6155 96.9131 56.227 96.9188 56.8894C96.9131 58.0331 96.6272 59.0013 96.061 59.794C95.4948 60.5867 94.6851 61.1897 93.6319 61.603C92.5845 62.0164 91.3247 62.223 89.8525 62.223C88.3408 62.223 87.0215 61.9994 85.8948 61.5521C84.7737 61.1048 83.9018 60.4168 83.2789 59.4883C82.6618 58.554 82.3504 57.3594 82.3447 55.9042H86.829C86.8573 56.4364 86.9904 56.8837 87.2282 57.2461C87.466 57.6085 87.8001 57.8831 88.2304 58.0699C88.6664 58.2568 89.1844 58.3502 89.7846 58.3502C90.2885 58.3502 90.7103 58.2879 91.0501 58.1634C91.3898 58.0388 91.6474 57.8661 91.8229 57.6453C91.9985 57.4245 92.089 57.1725 92.0947 56.8894C92.089 56.6233 92.0013 56.3912 91.8314 56.193C91.6672 55.9891 91.3955 55.808 91.0161 55.6494C90.6367 55.4852 90.1243 55.3324 89.4789 55.1908L87.7463 54.8171C86.2062 54.483 84.9917 53.9253 84.1028 53.144C83.2195 52.357 82.7807 51.284 82.7863 49.9251C82.7807 48.821 83.0751 47.8557 83.6696 47.029C84.2698 46.1967 85.0993 45.5484 86.1581 45.0841C87.2225 44.6198 88.4427 44.3877 89.8186 44.3877C91.2228 44.3877 92.4373 44.6226 93.4621 45.0926C94.4869 45.5625 95.2768 46.225 95.8316 47.08C96.3922 47.9293 96.6753 48.9229 96.6809 50.061H92.1627Z" fill="#94B56D"/>
<path d="M98.4786 48.4303V44.6255H113.596V48.4303H108.364V62.0192H103.71V48.4303H98.4786Z" fill="#94B56D"/>
<path d="M117.935 62.0192H112.84L118.581 44.6255H125.036L130.777 62.0192H125.681L121.876 49.4155H121.74L117.935 62.0192ZM116.984 55.1568H126.564V58.6899H116.984V55.1568Z" fill="#94B56D"/>
<path d="M137.413 44.6255V62.0192H132.691V44.6255H137.413Z" fill="#94B56D"/>
<path d="M154.94 44.6255V62.0192H150.999L144.714 52.8807H144.613V62.0192H139.89V44.6255H143.899L150.082 53.73H150.218V44.6255H154.94Z" fill="#94B56D"/>
<path d="M162.135 44.6255V62.0192H157.413V44.6255H162.135Z" fill="#94B56D"/>
<path d="M164.612 62.0192V44.6255H176.842V48.4303H169.334V51.4199H176.095V55.2248H169.334V62.0192H164.612Z" fill="#94B56D"/>
<path d="M178.105 44.6255H183.37L186.768 51.6917H186.903L190.301 44.6255H195.566L189.18 56.5497V62.0192H184.491V56.5497L178.105 44.6255Z" fill="#94B56D"/>
</svg>
