<svg width="109" height="851" viewBox="0 0 109 851" fill="none" xmlns="http://www.w3.org/2000/svg">
<mask id="path-1-outside-1_30_342" maskUnits="userSpaceOnUse" x="0" y="-0.646545" width="109" height="852" fill="black">
<rect fill="white" y="-0.646545" width="109" height="852"/>
<path d="M35.5346 791.051C32.2876 791.311 29.755 792.528 27.9367 794.704C26.1184 796.847 25.2092 800.11 25.2092 804.494C25.2092 807.286 25.5502 809.575 26.232 811.361C26.8814 813.114 27.7744 814.413 28.9108 815.257C30.0472 816.101 31.346 816.54 32.8071 816.572C34.0085 816.637 35.0963 816.426 36.0704 815.939C37.012 815.42 37.8724 814.608 38.6517 813.504C39.3985 812.4 40.0804 810.987 40.6973 809.267C41.3142 807.546 41.8662 805.5 42.3532 803.13L44.1066 794.947C45.2755 789.428 46.8178 784.703 48.7335 780.774C50.6492 776.846 52.9059 773.631 55.5034 771.131C58.0685 768.631 60.9583 766.796 64.1728 765.627C67.3873 764.426 70.8941 763.809 74.693 763.777C81.2519 763.809 86.8042 765.449 91.3499 768.696C95.8957 771.943 99.3537 776.586 101.724 782.625C104.094 788.632 105.279 795.857 105.279 804.299C105.279 812.968 103.997 820.534 101.432 826.995C98.8667 833.424 94.9216 838.424 89.5966 841.996C84.2391 845.535 77.388 847.321 69.0433 847.353V821.637C72.0954 821.475 74.6605 820.712 76.7386 819.348C78.8167 817.985 80.3914 816.069 81.4629 813.601C82.5344 811.101 83.0702 808.13 83.0702 804.688C83.0702 801.799 82.713 799.38 81.9987 797.431C81.2843 795.483 80.294 794.006 79.0277 792.999C77.7614 791.993 76.3165 791.473 74.693 791.441C73.1669 791.473 71.8357 791.976 70.6992 792.951C69.5303 793.892 68.4913 795.451 67.5822 797.626C66.6405 799.802 65.7639 802.74 64.9521 806.442L62.8091 816.377C60.8934 825.209 57.6951 832.174 53.2143 837.272C48.701 842.337 42.548 844.853 34.7553 844.821C28.4237 844.853 22.8877 843.165 18.1471 839.756C13.3741 836.314 9.65628 831.557 6.99377 825.485C4.33126 819.381 3 812.384 3 804.494C3 796.441 4.34749 789.476 7.04247 783.599C9.73746 777.722 13.5364 773.193 18.4393 770.011C23.3098 766.796 29.0082 765.173 35.5346 765.14L35.5346 791.051Z"/>
<path d="M4.36373 693.074L4.36373 665.994H68.264C75.8619 665.994 82.437 667.813 87.9893 671.449C93.5092 675.054 97.7789 680.086 100.799 686.548C103.786 693.009 105.279 700.51 105.279 709.049C105.279 717.654 103.786 725.187 100.799 731.648C97.7789 738.11 93.5092 743.142 87.9893 746.747C82.437 750.318 75.8619 752.104 68.264 752.104H4.36373L4.36373 725.024H65.9262C69.0108 725.024 71.7707 724.342 74.206 722.979C76.6087 721.615 78.492 719.732 79.8557 717.329C81.2194 714.894 81.9013 712.134 81.9013 709.049C81.9013 705.932 81.2194 703.172 79.8557 700.77C78.492 698.367 76.6087 696.484 74.206 695.12C71.7707 693.756 69.0108 693.074 65.9262 693.074H4.36373Z"/>
<path d="M35.5346 597.983C32.2876 598.243 29.755 599.46 27.9367 601.636C26.1184 603.779 25.2092 607.042 25.2092 611.425C25.2092 614.218 25.5502 616.507 26.232 618.293C26.8814 620.046 27.7744 621.345 28.9108 622.189C30.0472 623.033 31.346 623.472 32.8071 623.504C34.0085 623.569 35.0963 623.358 36.0704 622.871C37.012 622.352 37.8724 621.54 38.6517 620.436C39.3985 619.332 40.0804 617.919 40.6973 616.199C41.3142 614.478 41.8662 612.432 42.3532 610.062L44.1066 601.879C45.2755 596.36 46.8178 591.635 48.7335 587.706C50.6492 583.778 52.9059 580.563 55.5034 578.063C58.0685 575.563 60.9583 573.728 64.1728 572.559C67.3873 571.358 70.8941 570.741 74.693 570.709C81.2519 570.741 86.8042 572.381 91.3499 575.628C95.8957 578.875 99.3537 583.518 101.724 589.557C104.094 595.564 105.279 602.789 105.279 611.231C105.279 619.9 103.997 627.465 101.432 633.927C98.8667 640.356 94.9216 645.356 89.5966 648.928C84.2391 652.467 77.388 654.253 69.0433 654.285L69.0433 628.569C72.0954 628.407 74.6605 627.644 76.7386 626.28C78.8167 624.917 80.3914 623.001 81.4629 620.533C82.5344 618.033 83.0702 615.062 83.0702 611.62C83.0702 608.731 82.713 606.312 81.9987 604.363C81.2843 602.415 80.294 600.938 79.0277 599.931C77.7614 598.925 76.3165 598.405 74.693 598.373C73.1669 598.405 71.8357 598.908 70.6992 599.883C69.5303 600.824 68.4913 602.383 67.5822 604.558C66.6405 606.734 65.7639 609.672 64.9521 613.374L62.8091 623.309C60.8934 632.141 57.6951 639.106 53.2143 644.204C48.701 649.269 42.548 651.785 34.7553 651.753C28.4237 651.785 22.8877 650.097 18.1471 646.688C13.3741 643.246 9.65628 638.489 6.99377 632.417C4.33126 626.313 3 619.316 3 611.425C3 603.373 4.34749 596.408 7.04247 590.531C9.73746 584.654 13.5364 580.125 18.4393 576.943C23.3098 573.728 29.0082 572.105 35.5346 572.072L35.5346 597.983Z"/>
<path d="M26.1833 561.763H4.36373L4.36373 475.069H26.1833L26.1833 505.071H104.111L104.111 531.762H26.1833L26.1833 561.763Z"/>
<path d="M104.111 450.186L104.111 479.409L4.36373 446.484L4.36373 409.469L104.111 376.545L104.111 405.767L31.8331 427.587V428.366L104.111 450.186ZM64.7573 455.641L64.7573 400.702H85.0184L85.0184 455.641H64.7573Z"/>
<path d="M4.36373 338.486H104.111L104.111 365.566H4.36373L4.36373 338.486Z"/>
<path d="M4.36373 237.977H104.111V260.576L51.7045 296.617V297.202H104.111V324.281H4.36373L4.36373 301.293L56.5749 265.836V265.057H4.36373L4.36373 237.977Z"/>
<path d="M4.36373 196.716H104.111V223.796H4.36373L4.36373 196.716Z"/>
<path d="M104.111 182.511H4.36373L4.36373 112.377H26.1833L26.1833 155.432H43.3273L43.3273 116.663H65.1469V155.432H104.111L104.111 182.511Z"/>
<path d="M4.36373 105.136L4.36373 74.9396L44.8859 55.4578V54.6786L4.36373 35.1968L4.36373 5L72.7448 41.6257H104.111L104.111 68.5106H72.7448L4.36373 105.136Z"/>
</mask>
<path d="M35.5346 791.051C32.2876 791.311 29.755 792.528 27.9367 794.704C26.1184 796.847 25.2092 800.11 25.2092 804.494C25.2092 807.286 25.5502 809.575 26.232 811.361C26.8814 813.114 27.7744 814.413 28.9108 815.257C30.0472 816.101 31.346 816.54 32.8071 816.572C34.0085 816.637 35.0963 816.426 36.0704 815.939C37.012 815.42 37.8724 814.608 38.6517 813.504C39.3985 812.4 40.0804 810.987 40.6973 809.267C41.3142 807.546 41.8662 805.5 42.3532 803.13L44.1066 794.947C45.2755 789.428 46.8178 784.703 48.7335 780.774C50.6492 776.846 52.9059 773.631 55.5034 771.131C58.0685 768.631 60.9583 766.796 64.1728 765.627C67.3873 764.426 70.8941 763.809 74.693 763.777C81.2519 763.809 86.8042 765.449 91.3499 768.696C95.8957 771.943 99.3537 776.586 101.724 782.625C104.094 788.632 105.279 795.857 105.279 804.299C105.279 812.968 103.997 820.534 101.432 826.995C98.8667 833.424 94.9216 838.424 89.5966 841.996C84.2391 845.535 77.388 847.321 69.0433 847.353V821.637C72.0954 821.475 74.6605 820.712 76.7386 819.348C78.8167 817.985 80.3914 816.069 81.4629 813.601C82.5344 811.101 83.0702 808.13 83.0702 804.688C83.0702 801.799 82.713 799.38 81.9987 797.431C81.2843 795.483 80.294 794.006 79.0277 792.999C77.7614 791.993 76.3165 791.473 74.693 791.441C73.1669 791.473 71.8357 791.976 70.6992 792.951C69.5303 793.892 68.4913 795.451 67.5822 797.626C66.6405 799.802 65.7639 802.74 64.9521 806.442L62.8091 816.377C60.8934 825.209 57.6951 832.174 53.2143 837.272C48.701 842.337 42.548 844.853 34.7553 844.821C28.4237 844.853 22.8877 843.165 18.1471 839.756C13.3741 836.314 9.65628 831.557 6.99377 825.485C4.33126 819.381 3 812.384 3 804.494C3 796.441 4.34749 789.476 7.04247 783.599C9.73746 777.722 13.5364 773.193 18.4393 770.011C23.3098 766.796 29.0082 765.173 35.5346 765.14L35.5346 791.051Z" stroke="#B9DEA1" stroke-width="6" mask="url(#path-1-outside-1_30_342)"/>
<path d="M4.36373 693.074L4.36373 665.994H68.264C75.8619 665.994 82.437 667.813 87.9893 671.449C93.5092 675.054 97.7789 680.086 100.799 686.548C103.786 693.009 105.279 700.51 105.279 709.049C105.279 717.654 103.786 725.187 100.799 731.648C97.7789 738.11 93.5092 743.142 87.9893 746.747C82.437 750.318 75.8619 752.104 68.264 752.104H4.36373L4.36373 725.024H65.9262C69.0108 725.024 71.7707 724.342 74.206 722.979C76.6087 721.615 78.492 719.732 79.8557 717.329C81.2194 714.894 81.9013 712.134 81.9013 709.049C81.9013 705.932 81.2194 703.172 79.8557 700.77C78.492 698.367 76.6087 696.484 74.206 695.12C71.7707 693.756 69.0108 693.074 65.9262 693.074H4.36373Z" stroke="#B9DEA1" stroke-width="6" mask="url(#path-1-outside-1_30_342)"/>
<path d="M35.5346 597.983C32.2876 598.243 29.755 599.46 27.9367 601.636C26.1184 603.779 25.2092 607.042 25.2092 611.425C25.2092 614.218 25.5502 616.507 26.232 618.293C26.8814 620.046 27.7744 621.345 28.9108 622.189C30.0472 623.033 31.346 623.472 32.8071 623.504C34.0085 623.569 35.0963 623.358 36.0704 622.871C37.012 622.352 37.8724 621.54 38.6517 620.436C39.3985 619.332 40.0804 617.919 40.6973 616.199C41.3142 614.478 41.8662 612.432 42.3532 610.062L44.1066 601.879C45.2755 596.36 46.8178 591.635 48.7335 587.706C50.6492 583.778 52.9059 580.563 55.5034 578.063C58.0685 575.563 60.9583 573.728 64.1728 572.559C67.3873 571.358 70.8941 570.741 74.693 570.709C81.2519 570.741 86.8042 572.381 91.3499 575.628C95.8957 578.875 99.3537 583.518 101.724 589.557C104.094 595.564 105.279 602.789 105.279 611.231C105.279 619.9 103.997 627.465 101.432 633.927C98.8667 640.356 94.9216 645.356 89.5966 648.928C84.2391 652.467 77.388 654.253 69.0433 654.285L69.0433 628.569C72.0954 628.407 74.6605 627.644 76.7386 626.28C78.8167 624.917 80.3914 623.001 81.4629 620.533C82.5344 618.033 83.0702 615.062 83.0702 611.62C83.0702 608.731 82.713 606.312 81.9987 604.363C81.2843 602.415 80.294 600.938 79.0277 599.931C77.7614 598.925 76.3165 598.405 74.693 598.373C73.1669 598.405 71.8357 598.908 70.6992 599.883C69.5303 600.824 68.4913 602.383 67.5822 604.558C66.6405 606.734 65.7639 609.672 64.9521 613.374L62.8091 623.309C60.8934 632.141 57.6951 639.106 53.2143 644.204C48.701 649.269 42.548 651.785 34.7553 651.753C28.4237 651.785 22.8877 650.097 18.1471 646.688C13.3741 643.246 9.65628 638.489 6.99377 632.417C4.33126 626.313 3 619.316 3 611.425C3 603.373 4.34749 596.408 7.04247 590.531C9.73746 584.654 13.5364 580.125 18.4393 576.943C23.3098 573.728 29.0082 572.105 35.5346 572.072L35.5346 597.983Z" stroke="#B9DEA1" stroke-width="6" mask="url(#path-1-outside-1_30_342)"/>
<path d="M26.1833 561.763H4.36373L4.36373 475.069H26.1833L26.1833 505.071H104.111L104.111 531.762H26.1833L26.1833 561.763Z" stroke="#B9DEA1" stroke-width="6" mask="url(#path-1-outside-1_30_342)"/>
<path d="M104.111 450.186L104.111 479.409L4.36373 446.484L4.36373 409.469L104.111 376.545L104.111 405.767L31.8331 427.587V428.366L104.111 450.186ZM64.7573 455.641L64.7573 400.702H85.0184L85.0184 455.641H64.7573Z" stroke="#B9DEA1" stroke-width="6" mask="url(#path-1-outside-1_30_342)"/>
<path d="M4.36373 338.486H104.111L104.111 365.566H4.36373L4.36373 338.486Z" stroke="#B9DEA1" stroke-width="6" mask="url(#path-1-outside-1_30_342)"/>
<path d="M4.36373 237.977H104.111V260.576L51.7045 296.617V297.202H104.111V324.281H4.36373L4.36373 301.293L56.5749 265.836V265.057H4.36373L4.36373 237.977Z" stroke="#B9DEA1" stroke-width="6" mask="url(#path-1-outside-1_30_342)"/>
<path d="M4.36373 196.716H104.111V223.796H4.36373L4.36373 196.716Z" stroke="#B9DEA1" stroke-width="6" mask="url(#path-1-outside-1_30_342)"/>
<path d="M104.111 182.511H4.36373L4.36373 112.377H26.1833L26.1833 155.432H43.3273L43.3273 116.663H65.1469V155.432H104.111L104.111 182.511Z" stroke="#B9DEA1" stroke-width="6" mask="url(#path-1-outside-1_30_342)"/>
<path d="M4.36373 105.136L4.36373 74.9396L44.8859 55.4578V54.6786L4.36373 35.1968L4.36373 5L72.7448 41.6257H104.111L104.111 68.5106H72.7448L4.36373 105.136Z" stroke="#B9DEA1" stroke-width="6" mask="url(#path-1-outside-1_30_342)"/>
</svg>
