<svg width="32" height="32" viewBox="0 0 32 32" fill="none" xmlns="http://www.w3.org/2000/svg">
<path d="M15.9996 30C19.6396 30 22.9437 28.6141 25.4357 26.3321C25.2957 25.0161 24.4557 23.7281 22.9577 22.7201C19.1496 20.1721 12.8777 20.1721 9.04169 22.7201C7.54369 23.7281 6.70369 25.0161 6.56368 26.3321C9.05569 28.6141 12.3597 30 15.9996 30ZM15.9996 30C23.7316 30 30 23.7318 30 16C30 8.26799 23.7319 2 16 2C8.26802 2 2 8.26799 2 16C2 23.7318 8.26768 30 15.9996 30ZM16.1674 17.092C16.0694 17.078 15.9434 17.078 15.8314 17.092C13.3674 17.008 11.4074 14.992 11.4074 12.514C11.4074 9.97996 13.4514 7.92196 15.9994 7.92196C18.5334 7.92196 20.5914 9.97996 20.5914 12.514C20.5774 14.992 18.6314 17.008 16.1674 17.092Z" stroke="#B9DEA1" stroke-width="2.24" stroke-linecap="round" stroke-linejoin="round"/>
</svg>
