<svg width="28" height="28" viewBox="0 0 28 28" fill="none" xmlns="http://www.w3.org/2000/svg">
<path d="M13.7018 26.3192C16.9518 26.3192 19.9018 25.0818 22.1268 23.0443C22.0018 21.8693 21.2518 20.7193 19.9143 19.8193C16.5143 17.5443 10.9144 17.5443 7.48936 19.8193C6.15186 20.7193 5.40186 21.8693 5.27686 23.0443C7.50186 25.0818 10.4519 26.3192 13.7018 26.3192ZM13.7018 26.3192C20.6053 26.3192 26.2021 20.7226 26.2021 13.8192C26.2021 6.91565 20.6056 1.31924 13.7021 1.31924C6.79859 1.31924 1.20215 6.91565 1.20215 13.8192C1.20215 20.7226 6.79828 26.3192 13.7018 26.3192ZM13.8516 14.7942C13.7641 14.7817 13.6516 14.7817 13.5516 14.7942C11.3516 14.7192 9.60156 12.9192 9.60156 10.7067C9.60156 8.44419 11.4266 6.60669 13.7016 6.60669C15.9641 6.60669 17.8016 8.44419 17.8016 10.7067C17.7891 12.9192 16.0516 14.7192 13.8516 14.7942Z" stroke="#B9DEA1" stroke-width="2" stroke-linecap="round" stroke-linejoin="round"/>
</svg>
