<svg width="22" height="22" viewBox="0 0 22 22" fill="none" xmlns="http://www.w3.org/2000/svg">
<path d="M10.9997 21C13.5997 21 15.9597 20.0101 17.7398 18.3801C17.6398 17.4401 17.0398 16.5201 15.9697 15.8001C13.2497 13.9801 8.76982 13.9801 6.02978 15.8001C4.95978 16.5201 4.35977 17.4401 4.25977 18.3801C6.03978 20.0101 8.39981 21 10.9997 21ZM10.9997 21C16.5226 21 21 16.5227 21 11C21 5.47714 16.5228 1 11 1C5.47716 1 1 5.47714 1 11C1 16.5227 5.47691 21 10.9997 21ZM11.1196 11.78C11.0496 11.77 10.9596 11.77 10.8796 11.78C9.11958 11.72 7.71954 10.28 7.71954 8.50998C7.71954 6.69997 9.17958 5.22997 10.9996 5.22997C12.8096 5.22997 14.2796 6.69997 14.2796 8.50998C14.2696 10.28 12.8796 11.72 11.1196 11.78Z" stroke="#B9DEA1" stroke-width="1.6" stroke-linecap="round" stroke-linejoin="round"/>
</svg>
