<svg width="23" height="23" viewBox="0 0 23 23" fill="none" xmlns="http://www.w3.org/2000/svg">
<path d="M10.0986 20.8584L10.6364 20.3356L10.6032 20.3014L10.5659 20.2717L10.0986 20.8584ZM18.9349 19.2543L18.2205 19.0259L18.2124 19.0513L18.2061 19.0771L18.9349 19.2543ZM21.4299 11.4476L20.7213 11.2016L20.7183 11.2104L20.7154 11.2193L21.4299 11.4476ZM14.2569 7.38387L13.5153 7.27123L13.514 7.2807L14.2569 7.38387ZM14.7767 3.96178L14.0436 3.80342L14.0387 3.82616L14.0352 3.84916L14.7767 3.96178ZM13.4252 1.6091L13.1553 2.30884L13.1685 2.31395L13.182 2.31855L13.4252 1.6091ZM11.1382 2.35768L11.7661 2.76792L11.7676 2.76556L11.1382 2.35768ZM6.40873 18.8785L9.63139 21.445L10.5659 20.2717L7.3432 17.7051L6.40873 18.8785ZM9.56085 21.3811C9.9012 21.7313 10.3847 21.938 10.7968 22.0592C11.2264 22.1854 11.6874 22.25 12.0738 22.25V20.75C11.8365 20.75 11.5178 20.7076 11.2197 20.62C10.9041 20.5273 10.7119 20.4132 10.6364 20.3356L9.56085 21.3811ZM12.0738 22.25H16.0241V20.75H12.0738V22.25ZM16.0241 22.25C16.8333 22.25 17.638 21.9419 18.2814 21.4576C18.9262 20.9723 19.4595 20.2714 19.6637 19.4314L18.2061 19.0771C18.0984 19.5204 17.8001 19.9424 17.3793 20.2591C16.9572 20.5769 16.4625 20.75 16.0241 20.75V22.25ZM19.6493 19.4826L22.1443 11.6759L20.7154 11.2193L18.2205 19.0259L19.6493 19.4826ZM22.1384 11.6936C22.4681 10.7437 22.3542 9.78878 21.8317 9.05922C21.3101 8.33108 20.4457 7.91715 19.4547 7.91715V9.41715C20.023 9.41715 20.4061 9.64487 20.6122 9.93268C20.8173 10.2191 20.9113 10.6544 20.7213 11.2016L22.1384 11.6936ZM19.4547 7.91715H15.2964V9.41715H19.4547V7.91715ZM15.2964 7.91715C15.2024 7.91715 15.1248 7.87828 15.073 7.81794C15.0254 7.76243 14.9757 7.65986 14.9997 7.48703L13.514 7.2807C13.349 8.46893 14.2062 9.41715 15.2964 9.41715V7.91715ZM14.9984 7.49649L15.5182 4.07441L14.0352 3.84916L13.5154 7.27124L14.9984 7.49649ZM15.5097 4.12015C15.8006 2.77357 14.9515 1.33959 13.6685 0.899649L13.182 2.31855C13.7702 2.52025 14.1685 3.22508 14.0436 3.80342L15.5097 4.12015ZM13.6952 0.90936C13.0776 0.671141 12.4214 0.722431 11.8757 0.915374C11.3346 1.10671 10.8229 1.46506 10.5088 1.9498L11.7676 2.76556C11.8693 2.60866 12.0853 2.43231 12.3758 2.32956C12.6618 2.22842 12.9412 2.22624 13.1553 2.30884L13.6952 0.90936ZM10.5103 1.94745L6.2481 8.4708L7.50383 9.29126L11.7661 2.76791L10.5103 1.94745ZM2.32422 18.2918V7.81168H0.824219V18.2918H2.32422ZM2.32422 7.81168C2.32422 7.14262 2.46747 6.88926 2.58445 6.77818C2.71056 6.65843 2.987 6.52982 3.65334 6.52982V5.02982C2.86429 5.02982 2.10118 5.16856 1.55157 5.69045C0.992835 6.22101 0.824219 6.98358 0.824219 7.81168H2.32422ZM3.65334 6.52982H4.6929V5.02982H3.65334V6.52982ZM4.6929 6.52982C5.35924 6.52982 5.63569 6.65843 5.7618 6.77818C5.87878 6.88926 6.02203 7.14262 6.02203 7.81168H7.52203C7.52203 6.98358 7.35341 6.22101 6.79468 5.69045C6.24507 5.16856 5.48195 5.02982 4.6929 5.02982V6.52982ZM6.02203 7.81168V18.2918H7.52203V7.81168H6.02203ZM6.02203 18.2918C6.02203 18.9609 5.87878 19.2142 5.7618 19.3253C5.63569 19.445 5.35924 19.5737 4.6929 19.5737V21.0737C5.48195 21.0737 6.24507 20.9349 6.79468 20.413C7.35341 19.8825 7.52203 19.1199 7.52203 18.2918H6.02203ZM4.6929 19.5737H3.65334V21.0737H4.6929V19.5737ZM3.65334 19.5737C2.987 19.5737 2.71056 19.445 2.58445 19.3253C2.46747 19.2142 2.32422 18.9609 2.32422 18.2918H0.824219C0.824219 19.1199 0.992835 19.8825 1.55157 20.413C2.10118 20.9349 2.86429 21.0737 3.65334 21.0737V19.5737Z" fill="white"/>
</svg>