<svg width="194" height="337" viewBox="0 0 194 337" fill="none" xmlns="http://www.w3.org/2000/svg">
<path d="M0.138758 115.959C-1.8418 105.91 17.8835 71.0295 27.1394 55.2559C31.8162 62.8686 84.7477 125.14 118.359 159.849L86.6766 170.653L57.7305 178.327C39.9683 161.864 2.11931 126.008 0.138758 115.959Z" fill="#94B56D"/>
<path d="M126.954 166.043L66.8864 184.771C121.217 239.365 142.125 264.868 157.692 288.784C172.65 264.219 185.537 236.756 182.889 226.094C180.968 218.361 139.179 176.819 126.954 166.043Z" fill="#94B56D"/>
<path d="M35.9521 39.8121C37.9891 36.2395 41.7697 29.7541 50.1411 27.5501C56.2724 25.9358 62.0912 25.3571 64.0272 25.0327C82.6943 23.8516 84.4841 24.9638 85.499 25.0991C86.5139 25.2344 98.8841 27.2328 104.942 28.2151L99.0585 8.21008L149.195 60.149L125.432 104.509L119.884 89.7908L56.9197 78.7768C47.712 71.7833 30.8625 53.6715 35.9521 39.8121Z" fill="#94B56D"/>
<path d="M58.8984 240.494L10.3967 286.658L86.273 336.053L78.7323 313.73C86.1712 316.644 106.462 321.48 128.114 317.517C149.765 313.553 151.595 301.484 149.803 295.945C147.022 287.595 138.792 269.945 128.118 266.146C117.445 262.347 82.0687 257.387 65.7148 255.381L58.8984 240.494Z" fill="#94B56D"/>
<path d="M10.2557 107.865C8.27515 97.816 28.0005 62.9359 37.2563 47.1623C41.9331 54.775 94.8646 117.046 128.476 151.755L96.7936 162.559L67.8474 170.233C50.0853 153.771 12.2363 117.914 10.2557 107.865Z" fill="#ACD38B"/>
<path d="M137.071 157.95L77.0033 176.677C131.334 231.272 152.242 256.774 167.809 280.691C182.767 256.125 195.654 228.663 193.006 218C191.085 210.267 149.296 168.725 137.071 157.95Z" fill="#ACD38B"/>
<path d="M46.069 31.7185C48.106 28.1459 51.8866 21.6605 60.2581 19.4564C66.3893 17.8422 72.2081 17.2635 74.1442 16.9391C92.8112 15.758 94.601 16.8702 95.6159 17.0055C96.6308 17.1408 109.001 19.1391 115.059 20.1214L109.175 0.116455L159.312 52.0554L135.549 96.4153L130.001 81.6972L67.0366 70.6832C57.8289 63.6896 40.9794 45.5779 46.069 31.7185Z" fill="#ACD38B"/>
<path d="M69.0153 232.401L20.5136 278.565L96.3899 327.959L88.8493 305.637C96.2882 308.55 116.579 313.387 138.23 309.423C159.882 305.46 161.712 293.391 159.92 287.852C157.139 279.502 148.909 261.851 138.235 258.052C127.562 254.253 92.1856 249.293 75.8317 247.288L69.0153 232.401Z" fill="#ACD38B"/>
</svg>
