<svg width="1440" height="3571" viewBox="0 0 1440 3571" fill="none" xmlns="http://www.w3.org/2000/svg">
<path d="M-161.55 1729.36C-199.985 1636.48 -174.896 1194.22 -161.55 992.711C-113.507 1048.76 366.928 1441.11 659.193 1641.29L499.048 1893.51L346.91 2101.7C197.442 2014.95 -123.115 1822.25 -161.55 1729.36Z" fill="#50623A" fill-opacity="0.05"/>
<path d="M726.823 1665.31L418.544 2125.72C886.968 2433.99 1079.14 2598.14 1235.28 2770.29C1259.3 2454.01 1263.31 2117.71 1219.27 2021.62C1187.33 1951.94 828.226 1719.39 726.823 1665.31Z" fill="#50623A" fill-opacity="0.05"/>
<path d="M-149.971 796.537C-147.302 751.163 -141.964 668.423 -97.9239 608.37C-65.6689 564.386 -32.5314 532.302 -21.855 520.291C86.2428 424.206 99.8551 427.409 106.261 424.206C112.667 421.003 191.672 385.505 230.373 368.156L142.294 192L578.689 492.267L554.667 1048.76L482.602 924.65L78.2356 1096.8C4.83578 1067.44 -143.565 959.882 -149.971 796.537Z" fill="#50623A" fill-opacity="0.05"/>
<path d="M518.634 2726.25L498.616 3274.74L935.011 3571L830.917 3378.83C882.964 3374.83 1016.69 3332.39 1135.19 3194.67C1253.7 3056.94 1232.61 2926.43 1207.26 2878.39C1168.56 2806.32 1072.74 2664.6 999.069 2674.2C925.402 2683.81 701.466 2792.98 598.707 2846.36L518.634 2726.25Z" fill="#50623A" fill-opacity="0.05"/>
<path d="M206.45 1537.36C168.015 1444.48 193.104 1002.22 206.45 800.711C254.493 856.761 734.928 1249.11 1027.19 1449.29L867.048 1701.51L714.91 1909.7C565.442 1822.95 244.885 1630.25 206.45 1537.36Z" fill="#789461" fill-opacity="0.1"/>
<path d="M1094.82 1473.31L786.544 1933.72C1254.97 2241.99 1447.14 2406.14 1603.28 2578.29C1627.3 2262.01 1631.31 1925.71 1587.27 1829.62C1555.33 1759.94 1196.23 1527.39 1094.82 1473.31Z" fill="#789461" fill-opacity="0.1"/>
<path d="M218.029 604.537C220.698 559.163 226.036 476.423 270.076 416.37C302.331 372.386 335.469 340.302 346.145 328.291C454.243 232.206 467.855 235.409 474.261 232.206C480.667 229.003 559.672 193.505 598.373 176.156L510.294 0L946.689 300.267L922.667 856.761L850.602 732.65L446.236 904.803C372.836 875.444 224.435 767.882 218.029 604.537Z" fill="#789461" fill-opacity="0.1"/>
<path d="M886.634 2534.25L866.616 3082.74L1303.01 3379L1198.92 3186.83C1250.96 3182.83 1384.69 3140.39 1503.19 3002.67C1621.7 2864.94 1600.61 2734.43 1575.26 2686.39C1536.56 2614.32 1440.74 2472.6 1367.07 2482.2C1293.4 2491.81 1069.47 2600.98 966.707 2654.36L886.634 2534.25Z" fill="#789461" fill-opacity="0.1"/>
</svg>
